<svg viewBox="0 0 96 96" xmlns="http://www.w3.org/2000/svg" xmlns:xlink="http://www.w3.org/1999/xlink" id="Icons_Rose" overflow="hidden"><path d="M58.107 11.472C51.4132 6.22419 42.0145 6.17851 35.27 11.361 39.5943 12.8989 43.5432 15.3366 46.856 18.513 50.0825 15.4177 53.9126 13.0208 58.107 11.472Z" fill="#000000" fill-opacity="0.1"/><path d="M72.164 56.005C67.7052 56.8779 63.1753 57.3368 58.632 57.376 55.1942 57.4221 52.001 59.1632 50.1 62.028L50.1 51.449C59.5907 50.8749 66.9951 43.0131 67 33.505L67 25.005C66.9956 21.744 68.2698 18.6112 70.549 16.279 71.3139 15.4868 71.2918 14.2244 70.4995 13.4595 70.1259 13.0988 69.6263 12.898 69.107 12.9L67.985 12.9C66.8536 12.9225 65.7267 13.0504 64.619 13.282 63.691 13.496 62.787 13.768 61.894 14.066 59.4994 14.8568 57.2127 15.9432 55.087 17.3 53.0872 18.4598 51.2351 19.8573 49.571 21.462 53.2126 25.8954 55.6114 31.2164 56.522 36.881 56.6947 37.9717 55.9507 38.996 54.86 39.169 54.7556 39.1865 54.6499 39.1952 54.544 39.195 53.7232 39.1918 52.9878 38.6875 52.689 37.923 52.4927 36.7589 52.2286 35.6073 51.898 34.474 50.7034 30.1282 48.4958 26.1275 45.456 22.8 41.6616 18.5109 36.7364 15.3767 31.244 13.756 30.668 13.585 30.087 13.424 29.496 13.288 28.3886 13.0564 27.2621 12.9285 26.131 12.906L25.008 12.906C23.9068 12.9019 23.0107 13.7912 23.0065 14.8925 23.0046 15.4118 23.2053 15.9114 23.566 16.285 25.8452 18.6172 27.1194 21.75 27.115 25.011L27.115 33.511C27.123 43.0497 34.5761 50.9231 44.1 51.454L44.1 66C44.1 77.484 38.131 83.643 37.889 83.887 36.715 85.0561 36.7109 86.9556 37.88 88.1296 39.0415 89.296 40.9259 89.3087 42.103 88.158 45.7625 84.0731 48.2459 79.0723 49.289 73.688 53.6303 77.2546 59.6353 78.0079 64.723 75.624 72.022 72.2 75.586 63.3 72.164 56.005Z" fill="#000000" fill-opacity="0.1"/></svg>