<svg viewBox="0 0 96 96" xmlns="http://www.w3.org/2000/svg" xmlns:xlink="http://www.w3.org/1999/xlink" id="Icons_Koala" overflow="hidden"><style>
.MsftOfcResponsive_Fill_f117f6 {
 fill:#F117F6; 
}
</style>
<path d="M46 94 63 94 64.8 83.8 47.8 83.8Z" class="MsftOfcResponsive_Fill_f117f6" fill="#F117F6"/><path d="M69.4 14.8C71 17.9 70.8 21.8 68.8 25.7 67.1 29.1 64.4 31.9 61.1 33.8 60.1 37.4 57.9 40.5 54.9 42.6L54.5 44.6C58.6 44.7 62.7 44.3 66.7 43.3 68.3 42.8 70.1 42.9 71.7 43.5L79 2 62 2 60.7 9.4C64.4 9.3 67.8 11.5 69.4 14.8Z" class="MsftOfcResponsive_Fill_f117f6" fill="#F117F6"/><path d="M58.1 68.2 65.2 68.2C65.9 68.2 66.7 68.3 67.4 68.6L69.2 58.3C64.4 59.3 59.5 59.8 54.6 59.8 54.5 59.8 54.3 59.8 54.2 59.8 56.6 61.9 58 64.9 58.1 68.2Z" class="MsftOfcResponsive_Fill_f117f6" fill="#F117F6"/><path d="M65.4 80.8C65.6 80.8 65.8 80.8 66 80.7 68.7 80 70.3 77.3 69.7 74.7 69.6 74.2 69.4 73.7 69.1 73.2 68.2 71.9 66.6 71.1 65 71.1L56.7 71.1C55.8 71 55.2 70.3 55.1 69.4L55.1 68.3C55.1 63.4 51.1 59.4 46.2 59.4L43 59.4C42.6 59.4 42.2 59.1 42 58.8 41.6 58.2 41.7 57.5 42.2 56.9 42.5 56.6 42.8 56.5 43.2 56.5L50.8 56.9C52 57 53.3 57 54.5 57 60.3 57 66.1 56.4 70.4 55.1 73 54.3 74.5 51.5 73.7 48.8 73.6 48.6 73.6 48.4 73.5 48.3 72.4 46 69.8 44.8 67.3 45.6 63.3 46.8 57.3 47.2 51.9 47L52.2 44.1C49.7 45.4 46.9 46 44.1 46 37.1 46 31.3 42.6 28.5 37.3 22.9 44.6 17 54.5 17 62.7 17 75.7 24.5 80.8 36.6 80.8L65.4 80.8Z" class="MsftOfcResponsive_Fill_f117f6" fill="#F117F6"/><path d="M31 35.8C33.5 41.3 39.7 44.3 46.4 43.3 53 42.4 57.9 37.5 59 31.8 63.2 30.2 70.1 21.9 67 16 64.2 10.6 58.9 12 57.2 12.7 55.4 13.4 53.9 14.6 52.7 16.2 49.8 13.8 45.9 12.7 42.1 13.3 38.4 13.8 35.1 15.9 33 19 31.5 17.9 29.7 17.1 27.8 17 26 16.9 20.5 17 19.3 23 18 29.3 26.4 35.2 31 35.8ZM58.6 17.3C61.5 16.3 62.5 17.9 63 18.4 63.8 19.7 63.9 21.2 63.3 22.6 62.3 24.6 60.8 26.4 59 27.7 58.5 24.7 57.4 21.9 55.7 19.4 56.5 18.6 57.5 17.9 58.6 17.3ZM52.1 28C52.9 27.9 53.7 28.5 53.8 29.3 53.9 30.1 53.3 30.9 52.5 31 51.7 31.1 50.9 30.5 50.8 29.7 50.8 29.7 50.8 29.7 50.8 29.7 50.7 28.9 51.3 28.1 52.1 28ZM41.8 31.8C41.9 30.3 43 29.1 44.5 28.7 46 28.6 47.4 29.5 47.9 30.9 48.4 32.1 48.8 33.4 49.1 34.7 49.5 36.7 48.3 38.7 46.3 39.1 44.3 39.5 42.3 38.3 41.9 36.3 41.9 36.1 41.8 35.9 41.8 35.7 41.7 34.5 41.7 33.1 41.8 31.8ZM36.9 30.2C37.7 30.1 38.5 30.7 38.6 31.5 38.7 32.3 38.1 33.1 37.3 33.2 36.5 33.3 35.7 32.7 35.6 31.9 35.5 31.1 36.1 30.3 36.9 30.2L36.9 30.2ZM23.7 24.1C24 23.4 24.5 21.6 27.6 21.8 28.8 22 29.9 22.4 30.9 23 29.9 25.8 29.5 28.9 29.8 31.9 27.8 31.1 26 29.8 24.5 28.3 23.6 27.1 23.3 25.5 23.7 24.1Z" class="MsftOfcResponsive_Fill_f117f6" fill="#F117F6"/></svg>