<svg viewBox="0 0 96 96" xmlns="http://www.w3.org/2000/svg" xmlns:xlink="http://www.w3.org/1999/xlink" id="Icons_SmilingFaceWithHearts_Outline" overflow="hidden"><path d="M21.9 27.1C19 21.3 14 24.8 14 28.1 14 33 21.9 39 21.9 39 21.9 39 29.8 32.9 29.8 28.1 29.8 24.8 24.9 21.3 21.9 27.1Z" fill="#FF0000"/><path d="M74.1 17.1C71.2 11.3 66.2 14.8 66.2 18 66.2 22.9 74.1 28.9 74.1 28.9 74.1 28.9 82 22.9 82 18.1 82 14.8 77 11.3 74.1 17.1Z" fill="#FF0000"/><path d="M21.9 21.2C23.1 20.4 24.5 20 25.9 20 26.7 20 27.5 20.1 28.2 20.4 38.1 13.3 51.1 12 62.2 17.1 62.4 15.8 62.9 14.5 63.7 13.4 49.4 6.9 32.6 9.9 21.4 20.9 21.6 21 21.7 21.1 21.9 21.2Z" fill="#FF0000"/><path d="M77.6 31.3C83.3 41.4 83.5 53.6 78.1 63.8 79.3 64.8 80.1 66.1 80.6 67.5 87.8 55.5 87.8 40.5 80.6 28.4 79.7 29.5 78.7 30.4 77.6 31.3Z" fill="#FF0000"/><path d="M61.5 79.2C44.3 86.6 24.3 78.7 16.8 61.5 13.7 54.2 13.2 46.1 15.4 38.5 14.3 37.4 13.3 36.1 12.4 34.8 5.1 54.5 15.1 76.4 34.8 83.7 44.5 87.3 55.2 86.8 64.5 82.3 63.4 81.3 62.4 80.3 61.5 79.2Z" fill="#FF0000"/><path d="M69.1 69C66.2 63.2 61.2 66.7 61.2 69.9 61.2 74.8 69.1 80.8 69.1 80.8 69.1 80.8 77 74.9 77 70 77 66.7 72 63.2 69.1 69Z" fill="#FF0000"/><path d="M25.3 48.3C24.2 48.1 23.5 47 23.8 45.9 25 40.5 30.3 37.1 35.7 38.2 39.6 39 42.6 42 43.4 45.9 43.6 47 42.9 48 41.9 48.3 41.8 48.3 41.6 48.3 41.5 48.3 40.6 48.3 39.7 47.6 39.5 46.7 38.8 43.5 35.6 41.4 32.4 42.1 30.1 42.6 28.3 44.4 27.8 46.7 27.4 47.8 26.3 48.5 25.3 48.3Z" fill="#FF0000"/><path d="M48 69C42.4 69 37.1 66.5 33.5 62.3 32.8 61.4 32.9 60.2 33.8 59.5 34.6 58.8 35.8 58.9 36.5 59.7 41.9 66 51.4 66.8 57.8 61.4 58.4 60.9 59 60.3 59.5 59.7 60.2 58.8 61.4 58.7 62.3 59.4 63.2 60.1 63.3 61.3 62.6 62.2 62.6 62.2 62.5 62.3 62.5 62.3 58.9 66.5 53.6 69 48 69Z" fill="#FF0000"/><path d="M70.7 48.3C70.6 48.3 70.4 48.3 70.3 48.3 69.4 48.3 68.5 47.6 68.3 46.7 67.6 43.5 64.4 41.4 61.2 42.1 58.9 42.6 57.1 44.4 56.6 46.7 56.3 47.8 55.3 48.4 54.2 48.2 53.2 48 52.5 46.9 52.7 45.9 53.9 40.5 59.2 37.1 64.6 38.2 68.5 39 71.5 42 72.3 45.9 72.5 47 71.8 48.1 70.7 48.3Z" fill="#FF0000"/></svg>