<svg viewBox="0 0 96 96" xmlns="http://www.w3.org/2000/svg" xmlns:xlink="http://www.w3.org/1999/xlink" id="Icons_Sheep_M" overflow="hidden"><g id="Icons"><path d="M85.886 26.458 77.923 19.293C77.0044 18.4262 75.7784 17.9609 74.516 18L60.116 18C59.5733 17.9998 59.1296 18.4325 59.116 18.975L59.098 19.675C59.0547 20.7622 59.44 21.823 60.171 22.629 60.9249 23.4413 61.9837 23.9021 63.092 23.9L64.486 23.9C64.501 23.9 64.504 23.908 64.493 23.917L63.022 25.23C60.6714 24.374 58.0365 25.0816 56.431 27 55.3383 26.1989 53.9979 25.8094 52.646 25.9 51.3039 25.9797 50.0282 26.5107 49.026 27.407 46.7336 25.3998 43.3109 25.3942 41.012 27.394 38.7166 25.3978 35.3014 25.3978 33.006 27.394 31.8162 26.3269 30.2456 25.7859 28.651 25.894 27.0393 25.9868 25.5395 26.748 24.513 27.994 23.0389 26.9558 21.1754 26.6369 19.44 27.126 17.5511 27.6408 16.0431 29.0633 15.419 30.919 13.35 31.1548 11.5387 32.4162 10.6 34.275 9.75351 35.9979 9.78512 38.0224 10.685 39.718 9.49177 40.9572 8.88138 42.6452 9.006 44.361 9.13901 46.0808 10.021 47.6553 11.418 48.667 10.785 50.3318 10.8942 52.1879 11.718 53.767 12.7433 55.7442 14.7808 56.9894 17.008 57L17.008 74C17.0078 74.2655 17.1132 74.5203 17.301 74.708L19.301 76.708C19.4887 76.8952 19.7429 77.0002 20.008 77L26.008 77C26.5603 77 27.008 76.5523 27.008 76L27.008 74.662C27.0082 73.3363 26.482 72.0648 25.545 71.127L25.011 70.593 25.011 59.919C26.314 60.1463 27.6556 59.9353 28.826 59.319 29.7339 60.2137 30.9003 60.8 32.16 60.995 33.4246 61.1788 34.7147 60.9435 35.833 60.325 36.7398 61.2163 37.9035 61.8004 39.16 61.995 40.425 62.1789 41.7154 61.9436 42.834 61.325 43.7408 62.2163 44.9045 62.8004 46.161 62.995 46.4373 63.0378 46.7164 63.0592 46.996 63.059 47.6839 63.0551 48.3659 62.9309 49.011 62.692L49.011 74.006C49.0108 74.271 49.1158 74.5253 49.303 74.713L51.303 76.713C51.4907 76.9008 51.7455 77.0062 52.011 77.006L58.011 77.006C58.5633 77.006 59.011 76.5583 59.011 76.006L59.011 74.662C59.0112 73.3363 58.485 72.0648 57.548 71.127L57.014 70.593 57.014 62.655C57.6976 62.9865 58.431 63.2034 59.185 63.297 59.5068 63.3412 59.8312 63.3639 60.156 63.365 60.4432 63.3642 60.7299 63.3429 61.014 63.301L61.014 71.001C61.0138 71.2661 61.1188 71.5203 61.306 71.708L62.134 72.537C62.6952 73.0991 63.0106 73.8607 63.011 74.655L63.011 75.001 61.062 75.001C60.5165 74.9904 60.0557 75.4036 60.007 75.947 59.9772 76.4985 60.4001 76.9697 60.9515 76.9995 60.97 77.0005 60.9885 77.001 61.007 77.001L64.007 77.001C64.5593 77.001 65.007 76.5533 65.007 76.001L65.007 74.66C65.0067 73.3355 64.4809 72.0652 63.545 71.128L63.01 70.592 63.01 62.7C63.152 62.638 63.294 62.579 63.437 62.513 64.9259 61.822 66.0792 60.5676 66.643 59.026 68.411 59.1581 70.1432 58.4788 71.35 57.18 72.5731 55.8617 73.1299 54.0584 72.863 52.28 74.1315 51.5708 75.0916 50.4158 75.557 49.039 76.0308 47.6886 76.0052 46.2132 75.485 44.88 78.1456 42.9712 78.755 39.2669 76.8461 36.6063 76.7146 36.4229 76.5726 36.2472 76.421 36.08 76.8 35.313 77.276 34.496 77.575 34L83.917 34C86.0138 34.0254 87.7876 32.4554 88.017 30.371 88.142 28.574 86.262 26.794 85.886 26.458ZM55.009 60.577 55.009 71.007C55.0091 71.2717 55.1141 71.5256 55.301 71.713L56.129 72.543C56.6904 73.1053 57.0058 73.8674 57.006 74.662L57.006 75.006 52.421 75.006 51.009 73.593 51.009 61.018 50.985 60.855C50.949 60.4726 50.6763 60.1543 50.304 60.06 49.9839 59.9566 49.6332 60.022 49.372 60.234 48.5469 60.8742 47.4988 61.1553 46.464 61.014 45.4056 60.8518 44.4547 60.2764 43.82 59.414 43.4951 58.9674 42.8697 58.8686 42.4231 59.1935 42.4109 59.2024 42.3988 59.2116 42.387 59.221 41.5603 59.8712 40.5049 60.1574 39.463 60.014 38.4046 59.8518 37.4537 59.2764 36.819 58.414 36.4941 57.9674 35.8687 57.8686 35.4221 58.1935 35.4099 58.2024 35.3978 58.2116 35.386 58.221 34.559 58.8704 33.5038 59.1566 32.462 59.014 31.4016 58.8572 30.4489 58.2806 29.818 57.414 29.4937 56.967 28.8684 56.8675 28.4213 57.1919 28.4114 57.1991 28.4016 57.2064 28.392 57.214 27.2425 58.0857 25.7096 58.2623 24.392 57.675 23.8814 57.4645 23.2968 57.7077 23.0863 58.2183 23.0862 58.2185 23.0861 58.2188 23.086 58.219 23.0345 58.3428 23.009 58.4759 23.011 58.61L23.011 71.01C23.0111 71.2747 23.1161 71.5286 23.303 71.716L24.131 72.546C24.6924 73.1083 25.0078 73.8704 25.008 74.665L25.008 75.009 20.42 75.009 19.008 73.595 19.008 56.017C19.0183 55.871 19.0007 55.7244 18.956 55.585 18.7812 55.0612 18.2148 54.7783 17.691 54.953 17.466 54.9957 17.2368 55.0122 17.008 55.002 15.5233 54.9874 14.1688 54.1515 13.49 52.831 12.8337 51.5664 12.8615 50.0556 13.564 48.816 13.8497 48.3433 13.6981 47.7286 13.2254 47.4429 13.2099 47.4335 13.194 47.4245 13.178 47.416 11.9546 46.8028 11.1333 45.6025 11.005 44.24 10.8989 42.8712 11.4956 41.5423 12.589 40.712 13.0384 40.391 13.1425 39.7665 12.8215 39.317 12.8111 39.3024 12.8002 39.2881 12.789 39.274 11.8826 38.0932 11.7274 36.4995 12.389 35.166 13.0808 33.7971 14.4744 32.9245 16.008 32.9L16.208 32.9C16.6926 32.9038 17.1089 32.5565 17.192 32.079 17.467 30.624 18.5477 29.4533 19.976 29.063 21.4134 28.6429 22.9647 29.0765 23.976 30.181 24.3515 30.586 24.9842 30.6099 25.3892 30.2344 25.471 30.1585 25.5396 30.0695 25.592 29.971 26.6018 28.0634 28.9667 27.3356 30.8743 28.3454 31.3932 28.6201 31.8436 29.0083 32.192 29.481 32.3763 29.7515 32.6858 29.9094 33.013 29.9 33.3386 29.8976 33.6427 29.7368 33.828 29.469 35.1692 27.7136 37.6795 27.3777 39.4349 28.7189 39.7171 28.9345 39.9694 29.1868 40.185 29.469 40.5347 29.9233 41.1864 30.008 41.6407 29.6583 41.7117 29.6036 41.7753 29.54 41.83 29.469 43.1715 27.7138 45.6819 27.3785 47.4371 28.7201 47.7188 28.9354 47.9706 29.1873 48.186 29.469 48.5007 29.9229 49.1237 30.0357 49.5776 29.7211 49.6658 29.6599 49.7436 29.5849 49.808 29.499 50.5073 28.548 51.5962 27.9608 52.775 27.899 53.9486 27.8205 55.0919 28.292 55.869 29.175 56.1667 29.499 56.6399 29.5932 57.039 29.408 57.24 29.3086 57.4035 29.1469 57.505 28.947 58.5311 27.0608 60.8723 26.3343 62.786 27.308 63.1478 27.4833 63.5799 27.4198 63.876 27.148L66.676 24.648C66.8889 24.4584 67.0108 24.187 67.011 23.902L67.011 22.902C67.011 22.3497 66.5633 21.902 66.011 21.902L63.151 21.902C62.6726 21.91 62.2062 21.752 61.831 21.455 61.3891 21.0972 61.121 20.5679 61.094 20L74.516 20C75.2653 19.9659 75.997 20.234 76.547 20.744L84.547 27.944C85.19 28.524 86.059 29.644 86.023 30.176 85.9014 31.2387 84.9862 32.0314 83.917 32L77.017 32C76.6737 31.9998 76.3543 32.1758 76.171 32.466 75.4737 33.5718 74.8488 34.7215 74.3 35.908 74.127 36.3118 74.2378 36.7812 74.573 37.065 76.2331 38.482 76.4303 40.9764 75.0133 42.6366 74.663 43.047 74.2324 43.3813 73.748 43.619 73.2606 43.8787 73.076 44.4844 73.3357 44.9718 73.3365 44.9732 73.3372 44.9746 73.338 44.976 73.9311 46.005 74.0545 47.2389 73.677 48.365 73.3159 49.4725 72.4689 50.3544 71.377 50.76 70.8773 50.9299 70.6007 51.4638 70.75 51.97 71.1664 53.3181 70.8347 54.786 69.879 55.824 68.9212 56.8358 67.4941 57.2558 66.141 56.924 65.8749 56.8625 65.5952 56.9115 65.366 57.06 65.1375 57.2094 64.98 57.4456 64.93 57.714 64.6684 59.0197 63.8043 60.1246 62.6 60.693 61.6455 61.236 60.5402 61.454 59.451 61.314 58.4296 61.2678 57.4758 60.7902 56.827 60 56.5449 59.6155 56.0337 59.4783 55.597 59.67 55.2845 59.8126 55.0683 60.1071 55.026 60.448Z"/><path d="M31.009 70.592 31.009 63.065C31.02 62.519 30.6061 62.0578 30.062 62.01 29.5105 61.9807 29.0397 62.4041 29.0104 62.9556 29.0094 62.9737 29.009 62.9919 29.009 63.01L29.009 71.01C29.0091 71.2752 29.1145 71.5295 29.302 71.717L30.127 72.544C30.6896 73.1065 31.0058 73.8694 31.006 74.665L31.006 75.01 29.062 75.01C28.5165 74.9994 28.0557 75.4126 28.007 75.956 27.9772 76.5075 28.4001 76.9787 28.9515 77.0085 28.97 77.0095 28.9885 77.01 29.007 77.01L32.007 77.01C32.5593 77.01 33.007 76.5623 33.007 76.01L33.007 74.66C33.0067 73.3355 32.4809 72.0652 31.545 71.128Z"/><ellipse cx="75.504" cy="24.5" rx="1.504" ry="1.494" transform="matrix(0.707107 -0.707107 0.707107 0.707107 4.79 60.565)"/></g></svg>