<svg viewBox="0 0 96 96" xmlns="http://www.w3.org/2000/svg" xmlns:xlink="http://www.w3.org/1999/xlink" id="Icons_Stars_M" overflow="hidden"><g id="Icons"><path d="M31 13C31.329 13.0249 31.6103 13.2462 31.712 13.56L34.6 22.42 34.611 22.452 34.622 22.484C35.2947 24.3874 37.0815 25.6706 39.1 25.7L48.3 25.7C48.6219 25.6805 48.9171 25.8787 49.021 26.184 49.1452 26.5133 49.044 26.8851 48.77 27.106L41.483 33.6C40.1037 34.8467 39.5597 36.7729 40.083 38.557L42.775 47.931C42.8559 48.2466 42.7541 48.581 42.511 48.798 42.3574 48.9073 42.1762 48.9714 41.988 48.983 41.8664 48.9818 41.7484 48.9411 41.652 48.867L33.687 43.291C32.0682 42.0763 29.8418 42.0763 28.223 43.291L20.331 48.816C20.1771 48.8983 20.0055 48.9419 19.831 48.943 19.6886 48.9475 19.5485 48.9065 19.431 48.826L19.391 48.795 19.35 48.767C19.1104 48.6333 18.9986 48.349 19.083 48.088L19.103 48.033 19.12 47.976 21.92 38.576 21.946 38.488 21.964 38.397C22.116 37.6096 22.116 36.8004 21.964 36.013 21.7585 35.1212 21.2891 34.3121 20.617 33.691L20.571 33.645 20.52 33.6 16.443 30.021 13.229 27.108C12.9554 26.8873 12.8549 26.5155 12.98 26.187 13.1041 25.8982 13.3858 25.7089 13.7 25.703L22.9 25.703C24.9193 25.6744 26.707 24.3911 27.38 22.487L27.391 22.455 27.402 22.423 30.288 13.563C30.3887 13.248 30.6702 13.0254 31 13M31 11C29.8194 11.0218 28.7793 11.7818 28.4 12.9L25.5 21.8C25.1207 22.9182 24.0806 23.6782 22.9 23.7L13.7 23.7C12.1635 23.7021 10.9197 24.9493 10.9218 26.4858 10.9229 27.2997 11.2804 28.0723 11.9 28.6L15.1 31.5 19.2 35.1C19.5918 35.4426 19.8707 35.8958 20 36.4 20.1001 36.9286 20.1001 37.4714 20 38L17.2 47.4C16.8036 48.511 17.2163 49.7491 18.2 50.4 18.6677 50.7555 19.2406 50.9449 19.828 50.938 20.3819 50.936 20.9249 50.7847 21.4 50.5L29.4 44.9C30.3148 44.2001 31.5852 44.2001 32.5 44.9L40.5 50.5C40.9326 50.8096 41.451 50.9767 41.983 50.978 42.6012 50.9665 43.2007 50.7647 43.7 50.4 44.6034 49.6901 44.9968 48.51 44.7 47.4L42 38C41.6957 36.9598 42.0054 35.837 42.8 35.1L50.1 28.6C50.9863 27.8341 51.305 26.5991 50.9 25.5 50.5106 24.4033 49.4636 23.6785 48.3 23.7L39.1 23.7C37.9194 23.6783 36.8793 22.9182 36.5 21.8L33.6 12.9C33.2207 11.7818 32.1806 11.0217 31 11Z"/><path d="M69 31C69.134 31 69.173 31.045 69.195 31.109L71.5 38.332C72.0888 40.0406 73.6928 41.1907 75.5 41.2L82.656 41.2C82.745 41.217 82.877 41.256 82.903 41.333L82.914 41.368 82.927 41.402C82.9457 41.4773 82.9224 41.5567 82.866 41.61L77.2 46.682C75.9715 47.7436 75.4528 49.4108 75.862 50.982L75.872 51.021 75.883 51.06 78.083 58.56 78.093 58.595 78.105 58.63C78.136 58.7314 78.095 58.8409 78.005 58.897 77.9767 58.9222 77.9422 58.9394 77.905 58.947 77.8678 58.9396 77.8332 58.9224 77.805 58.897L77.78 58.879 77.755 58.861 71.355 54.361 71.311 54.33 71.26 54.3C70.5565 53.8579 69.7429 53.6226 68.912 53.621 68.0667 53.6141 67.2406 53.8726 66.55 54.36L60.15 58.86 60.071 58.915 60.054 58.93C60.0354 58.9211 60.0174 58.9111 60 58.9L59.963 58.882 59.891 58.837C59.8822 58.7968 59.8861 58.7549 59.902 58.717L62.302 51.317 62.338 51.206 62.361 51.092C62.5208 50.3743 62.5136 49.6295 62.34 48.915L62.286 48.701 62.186 48.501C61.9201 47.9059 61.5572 47.3591 61.112 46.883L61.066 46.837 61.02 46.8 57.72 43.9 55.1 41.581C55.078 41.563 55.032 41.523 55.1 41.333 55.133 41.233 55.191 41.2 55.2 41.2L62.5 41.2C64.323 41.2177 65.9449 40.0455 66.5 38.309L68.8 31.132C68.8439 31.0607 68.9171 31.0123 69 31M69 29C68.0549 29.0107 67.2167 29.6095 66.9 30.5L64.6 37.7C64.3079 38.6088 63.4544 39.2184 62.5 39.2L55.2 39.2C53.9603 39.2669 53.0095 40.3261 53.0763 41.5658 53.1079 42.1521 53.3677 42.7027 53.8 43.1L56.4 45.4 59.7 48.3C59.9901 48.6273 60.2264 48.9986 60.4 49.4 60.5003 49.8275 60.5003 50.2725 60.4 50.7L58 58.1C57.6797 58.9887 58.0105 59.9812 58.8 60.5 59.1691 60.7858 59.6212 60.9437 60.088 60.95 60.533 60.9509 60.9634 60.7911 61.3 60.5L67.7 56C68.055 55.7517 68.4788 55.6206 68.912 55.625 69.3679 55.6272 69.8142 55.7571 70.2 56L76.6 60.5C77.3625 61.101 78.4375 61.101 79.2 60.5 79.9811 59.9287 80.3043 58.9186 80 58L77.8 50.5C77.5741 49.6626 77.8459 48.7696 78.5 48.2L84.2 43.1C84.8752 42.4999 85.1134 41.5472 84.8 40.7 84.4933 39.845 83.7066 39.255 82.8 39.2L75.5 39.2C74.5549 39.1893 73.7167 38.5905 73.4 37.7L71.1 30.5C70.8079 29.5912 69.9544 28.9816 69 29Z"/><path d="M44.974 63.7C44.9757 63.6948 44.9814 63.6919 44.9866 63.6936 44.9896 63.6946 44.992 63.697 44.993 63.7L46.503 68.229C46.9959 69.6903 48.3579 70.6811 49.9 70.7L54.355 70.7C54.3605 70.6994 54.3654 70.7034 54.366 70.7089 54.3664 70.7124 54.3649 70.7159 54.362 70.718L50.715 73.867C49.5918 74.7946 49.1466 76.3127 49.591 77.7L50.969 82.322C50.9704 82.3273 50.9672 82.3328 50.9619 82.3342 50.9592 82.3349 50.9563 82.3345 50.954 82.333L47.054 79.572 47.031 79.556 47.008 79.54C45.7659 78.6921 44.1311 78.6921 42.889 79.54L42.865 79.556 42.842 79.572 38.942 82.333C38.9373 82.3359 38.9312 82.3345 38.9282 82.3299 38.9267 82.3275 38.9263 82.3247 38.927 82.322L40.309 77.7C40.5328 77.0077 40.5286 76.2618 40.297 75.572 40.0924 74.9775 39.7564 74.4368 39.314 73.99L35.614 70.621C35.6101 70.6171 35.6101 70.6108 35.614 70.6069 35.6156 70.6053 35.6177 70.6042 35.62 70.604L40.1 70.604C41.6661 70.623 43.0558 69.6035 43.508 68.104ZM45 61C44.3038 61.0411 43.6877 61.4647 43.4 62.1L41.6 67.5C41.4151 68.1698 40.7944 68.625 40.1 68.6L34.6 68.6C33.9056 68.575 33.2849 69.0302 33.1 69.7 32.9016 70.3462 33.0967 71.0487 33.6 71.5L35.5 73.2 37.9 75.4C38.1231 75.6269 38.2938 75.9 38.4 76.2 38.5 76.4917 38.5 76.8083 38.4 77.1L36.7 82.8C36.472 83.4667 36.7176 84.2035 37.3 84.6 37.8702 85.0001 38.6298 85.0001 39.2 84.6L44 81.2C44.5702 80.7999 45.3298 80.7999 45.9 81.2L50.7 84.6C51.2702 85 52.0298 85 52.6 84.6 53.1691 84.1935 53.4114 83.4666 53.2 82.8L51.5 77.1C51.3016 76.4844 51.4999 75.8101 52 75.4L56.4 71.6C56.8916 71.1416 57.0847 70.4463 56.9 69.8 56.6552 69.1738 56.0708 68.7452 55.4 68.7L49.9 68.7C49.2188 68.6841 48.6199 68.2449 48.4 67.6L46.6 62.2C46.355 61.5157 45.7255 61.0436 45 61Z"/></g></svg>